<svg xmlns="http://www.w3.org/2000/svg" width="16" height="15" viewBox="0 0 16 15">
    <path fill="#EA212E" fill-rule="evenodd" d="M10.125 11.11c.175-.018.313-.195.461-.342.325-.324 1.128-1.59 1.128-1.59s.317-.356.786-.063c.469.293 1.51 1.021 3.313 2.142.286.236.159.616.159.616s-1.263 2.021-3.24 3.008c-.446.277-1.479-.017-1.479-.017S2.944 13.02.084 4.62C-.094 4.245.066 3.568.066 3.568S.317 2.07 2.603.143c.37-.311.765-.016.765-.016s1.219 1.166 2.615 3.082a.46.46 0 0 1 .064.338c-.02.14-.086.264-.149.304-.974.769-1.546 1.555-1.652 1.696-.105.141-.105.39.117.664.223.273 1.99 3.08 5.104 4.66.198.098.448.26.659.239z"/>
</svg>
